# xmcd
#
# Track frame offsets:
#	150
#	8363
#	20528
#	30437
#	41509
#	50821
#	61705
#	73150
#	86080
#	98439
#	110803
#	118437
#	129775
#	141254
#	151652
#	161895
#
# Disc length: 2174 seconds
#
# Revision: 1
# Processed by: cddbd v1.5.2PL0 Copyright (c) Steve Scherf et al.
# Submitted via: audiograbber 1.83.01
#
DISCID=ce087c10
DTITLE=Hal Leonard - Dixieland Jam
DYEAR=1997
DGENRE=Dixieland
TTITLE0=Bugle Call Rag
TTITLE1=Basin Street Blues
TTITLE2=After You've Gone
TTITLE3=Tin Roof Blues
TTITLE4=King Porter Stomp
TTITLE5=Copenhagen
TTITLE6=The Jazz-Me Blues
TTITLE7=Original Dixieland One-step
TTITLE8=Royal Garden Blues
TTITLE9=Mississippi Mud
TTITLE10=Maple Leaf Rag
TTITLE11=Milenberg Joys
TTITLE12=Struttin' with Some Barbecue
TTITLE13=Way Down Yonder In New Orleans
TTITLE14=Wolverine Blues
TTITLE15=Bb Tuning Notes
EXTD=
EXTT0=
EXTT1=
EXTT2=
EXTT3=
EXTT4=
EXTT5=
EXTT6=
EXTT7=
EXTT8=
EXTT9=
EXTT10=
EXTT11=
EXTT12=
EXTT13=
EXTT14=
EXTT15=
PLAYORDER=
